<?xml version="1.0" encoding="UTF-8"?>
<!DOCTYPE svg PUBLIC "-//W3C//DTD SVG 1.1//EN" "http://www.w3.org/Graphics/SVG/1.1/DTD/svg11.dtd">
<svg xmlns="http://www.w3.org/2000/svg" version="1.1" width="686px" height="316px" style="shape-rendering:geometricPrecision; text-rendering:geometricPrecision; image-rendering:optimizeQuality; fill-rule:evenodd; clip-rule:evenodd" xmlns:xlink="http://www.w3.org/1999/xlink">
<g><path style="opacity:1" fill="#fefefe" d="M -0.5,-0.5 C 228.167,-0.5 456.833,-0.5 685.5,-0.5C 685.5,104.833 685.5,210.167 685.5,315.5C 456.833,315.5 228.167,315.5 -0.5,315.5C -0.5,210.167 -0.5,104.833 -0.5,-0.5 Z"/></g>
<g><path style="opacity:1" fill="#f2ee54" d="M 414.5,15.5 C 414.5,36.5 414.5,57.5 414.5,78.5C 414.167,78.5 413.833,78.5 413.5,78.5C 413.667,59.4971 413.5,40.4971 413,21.5C 412.047,18.5682 411.547,15.5682 411.5,12.5C 410.167,12.5 408.833,12.5 407.5,12.5C 407.5,19.8333 407.5,27.1667 407.5,34.5C 407.167,34.5 406.833,34.5 406.5,34.5C 406.5,27.1667 406.5,19.8333 406.5,12.5C 407.789,9.67806 409.789,9.0114 412.5,10.5C 413.028,12.3361 413.694,14.0028 414.5,15.5 Z"/></g>
<g><path style="opacity:1" fill="#e3fdfd" d="M 389.5,42.5 C 386.855,50.4159 384.521,58.4159 382.5,66.5C 380.401,70.7949 379.234,75.4616 379,80.5C 378.5,91.495 378.333,102.495 378.5,113.5C 378.5,113.833 378.5,114.167 378.5,114.5C 378.167,114.5 377.833,114.5 377.5,114.5C 377.5,114.167 377.5,113.833 377.5,113.5C 377.333,99.496 377.5,85.496 378,71.5C 378.626,67.0153 380.292,63.0153 383,59.5C 383.743,57.5594 383.576,55.7261 382.5,54C 384.634,49.9676 386.968,46.1342 389.5,42.5 Z"/></g>
<g><path style="opacity:1" fill="#e4f1a8" d="M 524.5,61.5 C 530.176,61.3339 535.843,61.5006 541.5,62C 542.416,62.2784 543.082,62.7784 543.5,63.5C 541.585,63.2155 539.919,63.5489 538.5,64.5C 535.833,64.1667 533.167,63.8333 530.5,63.5C 528.5,63.5 526.5,63.5 524.5,63.5C 524.5,62.8333 524.5,62.1667 524.5,61.5 Z"/></g>
<g><path style="opacity:1" fill="#d9ee8c" d="M 406.5,34.5 C 406.833,34.5 407.167,34.5 407.5,34.5C 408.765,51.8308 408.765,69.1642 407.5,86.5C 407.167,86.5 406.833,86.5 406.5,86.5C 406.5,69.1667 406.5,51.8333 406.5,34.5 Z"/></g>
<g><path style="opacity:1" fill="#f7ec2a" d="M 399.5,55.5 C 399.5,55.8333 399.5,56.1667 399.5,56.5C 398.508,60.4044 397.508,64.4044 396.5,68.5C 395.883,68.6107 395.383,68.944 395,69.5C 394.5,97.1647 394.333,124.831 394.5,152.5C 394.151,157.562 391.484,159.896 386.5,159.5C 386.5,158.5 386.5,157.5 386.5,156.5C 386.5,155.5 386.5,154.5 386.5,153.5C 387.332,128.337 387.832,103.003 388,77.5C 389.407,71.1415 390.907,64.8082 392.5,58.5C 392.5,57.8333 392.5,57.1667 392.5,56.5C 394.074,54.8984 394.741,52.8984 394.5,50.5C 395.639,47.9963 396.306,45.3297 396.5,42.5C 397.15,42.1961 397.817,41.8627 398.5,41.5C 399.493,46.1196 399.827,50.7863 399.5,55.5 Z"/></g>
<g><path style="opacity:1" fill="#68b5d4" d="M 513.5,65.5 C 511.93,67.8511 511.097,70.5177 511,73.5C 510.831,88.3391 510.331,103.006 509.5,117.5C 509.333,101.497 509.5,85.4965 510,69.5C 510.057,67.0898 511.224,65.7565 513.5,65.5 Z"/></g>
<g><path style="opacity:1" fill="#109edb" d="M 405.5,12.5 C 405.981,56.8606 405.147,101.194 403,145.5C 402.808,147.577 402.308,149.577 401.5,151.5C 400.5,126.842 400.167,102.176 400.5,77.5C 400.5,70.1667 400.5,62.8333 400.5,55.5C 400.5,50.1667 400.5,44.8333 400.5,39.5C 398.027,39.0882 396.694,40.0882 396.5,42.5C 396.306,45.3297 395.639,47.9963 394.5,50.5C 392.926,52.1016 392.259,54.1016 392.5,56.5C 390.271,59.3538 388.938,62.6871 388.5,66.5C 388.737,67.791 388.404,68.791 387.5,69.5C 386.778,69.9175 386.278,70.5842 386,71.5C 385.5,91.8306 385.333,112.164 385.5,132.5C 386.01,141.652 385.343,150.652 383.5,159.5C 377.766,160.825 371.932,160.825 366,159.5C 364.727,147.237 364.06,134.903 364,122.5C 363.261,119.454 362.428,116.454 361.5,113.5C 361.833,111.5 362.167,109.5 362.5,107.5C 363.5,107.5 364.5,107.5 365.5,107.5C 365.402,111.25 366.569,114.583 369,117.5C 369.501,122.508 370.001,127.508 370.5,132.5C 369.872,139.913 370.539,146.913 372.5,153.5C 372.5,154.167 372.833,154.5 373.5,154.5C 374.449,155.152 375.615,155.486 377,155.5C 378.681,155.392 379.848,154.725 380.5,153.5C 381.593,133.999 381.593,114.332 380.5,94.5C 380.418,85.1017 381.085,75.7683 382.5,66.5C 384.521,58.4159 386.855,50.4159 389.5,42.5C 392.824,32.8616 396.158,23.1949 399.5,13.5C 401.281,11.4537 403.281,11.1204 405.5,12.5 Z"/></g>
<g><path style="opacity:1" fill="#63ad7f" d="M 392.5,56.5 C 392.5,57.1667 392.5,57.8333 392.5,58.5C 391.462,61.3449 390.128,64.0116 388.5,66.5C 388.938,62.6871 390.271,59.3538 392.5,56.5 Z"/></g>
<g><path style="opacity:1" fill="#b0e27a" d="M 394.5,50.5 C 394.741,52.8984 394.074,54.8984 392.5,56.5C 392.259,54.1016 392.926,52.1016 394.5,50.5 Z"/></g>
<g><path style="opacity:1" fill="#85c267" d="M 400.5,55.5 C 400.167,55.5 399.833,55.5 399.5,55.5C 399.827,50.7863 399.493,46.1196 398.5,41.5C 397.817,41.8627 397.15,42.1961 396.5,42.5C 396.694,40.0882 398.027,39.0882 400.5,39.5C 400.5,44.8333 400.5,50.1667 400.5,55.5 Z"/></g>
<g><path style="opacity:1" fill="#cae964" d="M 392.5,58.5 C 390.907,64.8082 389.407,71.1415 388,77.5C 387.832,103.003 387.332,128.337 386.5,153.5C 386.5,146.5 386.5,139.5 386.5,132.5C 386.212,111.473 386.546,90.4733 387.5,69.5C 388.404,68.791 388.737,67.791 388.5,66.5C 390.128,64.0116 391.462,61.3449 392.5,58.5 Z"/></g>
<g><path style="opacity:1" fill="#e1f1a9" d="M 210.5,93.5 C 208.473,93.3379 206.473,93.5045 204.5,94C 205.056,94.3826 205.389,94.8826 205.5,95.5C 204.833,95.5 204.167,95.5 203.5,95.5C 200.493,93.8255 197.16,93.1588 193.5,93.5C 192.833,93.5 192.167,93.5 191.5,93.5C 194.55,92.0648 197.883,91.3981 201.5,91.5C 204.814,91.3425 207.814,92.0092 210.5,93.5 Z"/></g>
<g><path style="opacity:1" fill="#3fa697" d="M 193.5,93.5 C 197.16,93.1588 200.493,93.8255 203.5,95.5C 202.5,95.5 201.5,95.5 200.5,95.5C 198.833,95.5 197.167,95.5 195.5,95.5C 194.833,94.8333 194.167,94.1667 193.5,93.5 Z"/></g>
<g><path style="opacity:1" fill="#e5ea59" d="M 210.5,93.5 C 212.698,93.1201 214.365,93.7868 215.5,95.5C 215.5,102.167 215.5,108.833 215.5,115.5C 213.167,115.5 210.833,115.5 208.5,115.5C 208.666,110.156 208.499,104.823 208,99.5C 207.878,97.563 207.045,96.2297 205.5,95.5C 205.389,94.8826 205.056,94.3826 204.5,94C 206.473,93.5045 208.473,93.3379 210.5,93.5 Z"/></g>
<g><path style="opacity:1" fill="#c5e15c" d="M 360.5,94.5 C 363.571,97.8142 365.571,101.814 366.5,106.5C 365.309,104.673 363.975,103.007 362.5,101.5C 362.6,98.8915 361.933,96.5582 360.5,94.5 Z"/></g>
<g><path style="opacity:1" fill="#faeb11" d="M 209.5,94.5 C 211.144,94.2865 212.644,94.6198 214,95.5C 214.5,101.825 214.666,108.158 214.5,114.5C 212.833,114.5 211.167,114.5 209.5,114.5C 209.5,107.833 209.5,101.167 209.5,94.5 Z"/></g>
<g><path style="opacity:1" fill="#2da1d1" d="M 382.5,66.5 C 381.085,75.7683 380.418,85.1017 380.5,94.5C 381.593,114.332 381.593,133.999 380.5,153.5C 380.828,142.321 380.495,131.321 379.5,120.5C 379.802,117.941 379.468,115.607 378.5,113.5C 378.333,102.495 378.5,91.495 379,80.5C 379.234,75.4616 380.401,70.7949 382.5,66.5 Z"/></g>
<g><path style="opacity:1" fill="#339fae" d="M 357.5,92.5 C 357.833,92.5 358.167,92.5 358.5,92.5C 358.833,93.5 359.5,94.1667 360.5,94.5C 361.933,96.5582 362.6,98.8915 362.5,101.5C 361.85,101.196 361.183,100.863 360.5,100.5C 359.745,97.6754 358.745,95.0087 357.5,92.5 Z"/></g>
<g><path style="opacity:1" fill="#eeeb38" d="M 372.5,103.5 C 370.903,102.91 369.569,101.91 368.5,100.5C 367.203,103.188 367.536,105.688 369.5,108C 369.167,108.333 368.833,108.667 368.5,109C 370.163,111.654 371.496,114.487 372.5,117.5C 373.499,129.148 373.832,140.814 373.5,152.5C 374.833,152.5 376.167,152.5 377.5,152.5C 377.5,139.833 377.5,127.167 377.5,114.5C 377.833,114.5 378.167,114.5 378.5,114.5C 378.5,127.5 378.5,140.5 378.5,153.5C 376.5,153.5 374.5,153.5 372.5,153.5C 372.5,153.167 372.5,152.833 372.5,152.5C 372.667,141.828 372.5,131.161 372,120.5C 371.722,119.584 371.222,118.918 370.5,118.5C 369.231,114.532 367.898,110.532 366.5,106.5C 365.571,101.814 363.571,97.8142 360.5,94.5C 359.5,94.1667 358.833,93.5 358.5,92.5C 360.108,89.513 362.442,88.8464 365.5,90.5C 369.157,94.1688 371.49,98.5022 372.5,103.5 Z"/></g>
<g><path style="opacity:1" fill="#489d9d" d="M 530.5,63.5 C 533.167,63.8333 535.833,64.1667 538.5,64.5C 539.708,65.2341 541.041,65.5674 542.5,65.5C 542.517,67.5648 542.85,69.5648 543.5,71.5C 543.83,88.0085 543.496,104.342 542.5,120.5C 542.83,103.658 542.497,86.9916 541.5,70.5C 541.5,69.1667 541.5,67.8333 541.5,66.5C 538.126,66.3256 534.793,65.8256 531.5,65C 530.944,64.6174 530.611,64.1174 530.5,63.5 Z"/></g>
<g><path style="opacity:1" fill="#f9eb14" d="M 413.5,78.5 C 412.267,105.66 412.267,132.66 413.5,159.5C 413.5,161.167 413.5,162.833 413.5,164.5C 411.5,164.5 409.5,164.5 407.5,164.5C 407.5,138.5 407.5,112.5 407.5,86.5C 408.765,69.1642 408.765,51.8308 407.5,34.5C 407.5,27.1667 407.5,19.8333 407.5,12.5C 408.833,12.5 410.167,12.5 411.5,12.5C 411.547,15.5682 412.047,18.5682 413,21.5C 413.5,40.4971 413.667,59.4971 413.5,78.5 Z"/></g>
<g><path style="opacity:1" fill="#82c47f" d="M 344.5,107.5 C 343.5,109.167 342.167,110.5 340.5,111.5C 340.833,109.167 342.167,107.833 344.5,107.5 Z"/></g>
<g><path style="opacity:1" fill="#edf9a0" d="M 215.5,95.5 C 216.328,101.319 216.828,107.319 217,113.5C 220.73,114.46 224.563,114.793 228.5,114.5C 228.5,114.833 228.5,115.167 228.5,115.5C 225.287,115.19 222.287,115.523 219.5,116.5C 215.629,116.815 211.962,116.482 208.5,115.5C 210.833,115.5 213.167,115.5 215.5,115.5C 215.5,108.833 215.5,102.167 215.5,95.5 Z"/></g>
<g><path style="opacity:1" fill="#3ea48e" d="M 387.5,69.5 C 386.546,90.4733 386.212,111.473 386.5,132.5C 386.167,132.5 385.833,132.5 385.5,132.5C 385.333,112.164 385.5,91.8306 386,71.5C 386.278,70.5842 386.778,69.9175 387.5,69.5 Z"/></g>
<g><path style="opacity:1" fill="#49a9c6" d="M 200.5,95.5 C 201.5,95.5 202.5,95.5 203.5,95.5C 204.167,95.5 204.833,95.5 205.5,95.5C 207.045,96.2297 207.878,97.563 208,99.5C 208.499,104.823 208.666,110.156 208.5,115.5C 211.962,116.482 215.629,116.815 219.5,116.5C 220.71,116.932 221.71,117.599 222.5,118.5C 222.5,128.833 222.5,139.167 222.5,149.5C 221.883,149.389 221.383,149.056 221,148.5C 220.699,138.48 220.199,128.48 219.5,118.5C 214.054,117.406 208.721,117.072 203.5,117.5C 203.5,118.5 203.5,119.5 203.5,120.5C 207.104,119.755 210.771,119.922 214.5,121C 215.252,121.671 215.586,122.504 215.5,123.5C 211.818,123.665 208.152,123.499 204.5,123C 203.667,122.167 202.833,121.333 202,120.5C 201.5,114.175 201.334,107.842 201.5,101.5C 198.5,101.5 195.5,101.5 192.5,101.5C 190.167,101.5 187.833,101.5 185.5,101.5C 190.975,100.511 196.642,100.178 202.5,100.5C 202.041,105.81 203.041,110.81 205.5,115.5C 206.707,109.157 206.707,102.824 205.5,96.5C 203.585,96.7845 201.919,96.4511 200.5,95.5 Z"/></g>
<g><path style="opacity:1" fill="#fcfdf2" d="M 564.5,174.5 C 560.233,174.797 556.066,174.464 552,173.5C 551.833,137.331 551.333,101.331 550.5,65.5C 550.5,64.8333 550.167,64.5 549.5,64.5C 547.735,63.5386 545.735,63.2053 543.5,63.5C 543.082,62.7784 542.416,62.2784 541.5,62C 535.843,61.5006 530.176,61.3339 524.5,61.5C 530.568,60.1742 536.734,60.1742 543,61.5C 544.194,60.5697 545.527,59.9031 547,59.5C 549.731,60.6908 552.064,62.3574 554,64.5C 554.062,100.554 553.896,136.554 553.5,172.5C 557.458,172.251 561.124,172.918 564.5,174.5 Z"/></g>
<g><path style="opacity:1" fill="#68c1a1" d="M 501.5,118.5 C 503.948,117.527 506.615,117.194 509.5,117.5C 507.201,119.769 504.534,120.102 501.5,118.5 Z"/></g>
<g><path style="opacity:1" fill="#0c9ed9" d="M 195.5,95.5 C 197.167,95.5 198.833,95.5 200.5,95.5C 201.919,96.4511 203.585,96.7845 205.5,96.5C 206.707,102.824 206.707,109.157 205.5,115.5C 203.041,110.81 202.041,105.81 202.5,100.5C 196.642,100.178 190.975,100.511 185.5,101.5C 184.833,129.5 184.167,157.5 183.5,185.5C 182.701,187.739 181.368,189.739 179.5,191.5C 178.571,190.311 178.238,188.978 178.5,187.5C 179.495,175.011 179.829,162.344 179.5,149.5C 183.5,148.833 183.5,148.167 179.5,147.5C 179.5,130.5 179.5,113.5 179.5,96.5C 182.39,96.722 185.057,96.0553 187.5,94.5C 190.084,95.3928 192.751,95.7261 195.5,95.5 Z"/></g>
<g><path style="opacity:1" fill="#0a9edd" d="M 524.5,63.5 C 526.5,63.5 528.5,63.5 530.5,63.5C 530.611,64.1174 530.944,64.6174 531.5,65C 534.793,65.8256 538.126,66.3256 541.5,66.5C 541.5,67.8333 541.5,69.1667 541.5,70.5C 541.333,105.835 541.5,141.168 542,176.5C 542.5,177 543,177.5 543.5,178C 549.167,178.333 554.833,178.667 560.5,179C 555.944,181.059 551.111,182.226 546,182.5C 544.073,181.139 541.906,180.306 539.5,180C 538.809,178.933 538.309,177.766 538,176.5C 537.333,150.662 537.5,124.829 538.5,99C 538.575,89.6274 537.908,80.4607 536.5,71.5C 532.833,71.5 529.167,71.5 525.5,71.5C 525.167,71.5 524.833,71.5 524.5,71.5C 522.167,71.5 519.833,71.5 517.5,71.5C 516.883,71.6107 516.383,71.944 516,72.5C 515.5,89.1633 515.333,105.83 515.5,122.5C 509.515,123.076 503.515,123.576 497.5,124C 496.944,124.383 496.611,124.883 496.5,125.5C 495.039,138.565 493.706,151.898 492.5,165.5C 491.833,165.5 491.167,165.5 490.5,165.5C 481.323,164.943 472.323,164.943 463.5,165.5C 462.737,181.011 462.07,196.678 461.5,212.5C 460.596,211.791 460.263,210.791 460.5,209.5C 459.5,209.5 458.5,209.5 457.5,209.5C 457.228,193.472 457.561,177.472 458.5,161.5C 458.973,160.094 459.973,159.427 461.5,159.5C 470.652,160.696 479.652,160.696 488.5,159.5C 488.5,158.833 488.5,158.167 488.5,157.5C 488.805,146.215 488.972,134.882 489,123.5C 489.366,121.548 490.199,119.882 491.5,118.5C 494.833,118.5 498.167,118.5 501.5,118.5C 504.534,120.102 507.201,119.769 509.5,117.5C 510.331,103.006 510.831,88.3391 511,73.5C 511.097,70.5177 511.93,67.8511 513.5,65.5C 516.974,64.4751 520.64,63.8084 524.5,63.5 Z"/></g>
<g><path style="opacity:1" fill="#fefddf" d="M 524.5,71.5 C 524.833,71.5 525.167,71.5 525.5,71.5C 525.5,71.8333 525.5,72.1667 525.5,72.5C 526.009,83.1677 526.676,93.8344 527.5,104.5C 527.723,111.37 527.056,118.036 525.5,124.5C 523.833,124.5 522.167,124.5 520.5,124.5C 521.531,123.751 522.698,123.085 524,122.5C 524.333,120.167 524.667,117.833 525,115.5C 525.353,101.164 525.187,86.8305 524.5,72.5C 524.5,72.1667 524.5,71.8333 524.5,71.5 Z"/></g>
<g><path style="opacity:1" fill="#f0ea48" d="M 524.5,72.5 C 525.187,86.8305 525.353,101.164 525,115.5C 524.667,117.833 524.333,120.167 524,122.5C 522.698,123.085 521.531,123.751 520.5,124.5C 518.901,124.768 517.568,124.434 516.5,123.5C 516.205,121.265 516.539,119.265 517.5,117.5C 518.496,102.676 518.829,87.676 518.5,72.5C 520.5,72.5 522.5,72.5 524.5,72.5 Z"/></g>
<g><path style="opacity:1" fill="#c7f174" d="M 517.5,71.5 C 519.833,71.5 522.167,71.5 524.5,71.5C 524.5,71.8333 524.5,72.1667 524.5,72.5C 522.5,72.5 520.5,72.5 518.5,72.5C 518.829,87.676 518.496,102.676 517.5,117.5C 517.5,102.167 517.5,86.8333 517.5,71.5 Z"/></g>
<g><path style="opacity:1" fill="#fbec06" d="M 519.5,73.5 C 520.833,73.5 522.167,73.5 523.5,73.5C 523.667,89.5035 523.5,105.503 523,121.5C 518.397,123.533 517.064,122.533 519,118.5C 519.5,103.504 519.667,88.5037 519.5,73.5 Z"/></g>
<g><path style="opacity:1" fill="#fbeb12" d="M 372.5,103.5 C 373.873,107.04 375.54,110.373 377.5,113.5C 377.5,113.833 377.5,114.167 377.5,114.5C 377.5,127.167 377.5,139.833 377.5,152.5C 376.167,152.5 374.833,152.5 373.5,152.5C 373.832,140.814 373.499,129.148 372.5,117.5C 371.496,114.487 370.163,111.654 368.5,109C 368.833,108.667 369.167,108.333 369.5,108C 367.536,105.688 367.203,103.188 368.5,100.5C 369.569,101.91 370.903,102.91 372.5,103.5 Z"/></g>
<g><path style="opacity:1" fill="#45a3ab" d="M 517.5,71.5 C 517.5,86.8333 517.5,102.167 517.5,117.5C 516.539,119.265 516.205,121.265 516.5,123.5C 512.7,125.143 508.7,125.81 504.5,125.5C 501.833,125.5 499.167,125.5 496.5,125.5C 496.611,124.883 496.944,124.383 497.5,124C 503.515,123.576 509.515,123.076 515.5,122.5C 515.333,105.83 515.5,89.1633 516,72.5C 516.383,71.944 516.883,71.6107 517.5,71.5 Z"/></g>
<g><path style="opacity:1" fill="#4ca9ca" d="M 191.5,93.5 C 192.167,93.5 192.833,93.5 193.5,93.5C 194.167,94.1667 194.833,94.8333 195.5,95.5C 192.751,95.7261 190.084,95.3928 187.5,94.5C 185.057,96.0553 182.39,96.722 179.5,96.5C 179.5,113.5 179.5,130.5 179.5,147.5C 183.5,148.167 183.5,148.833 179.5,149.5C 179.829,162.344 179.495,175.011 178.5,187.5C 178.167,187.5 177.833,187.5 177.5,187.5C 177.5,175.5 177.5,163.5 177.5,151.5C 177.333,133.497 177.5,115.497 178,97.5C 178.374,96.5838 178.874,95.7504 179.5,95C 183.44,93.9847 187.44,93.4847 191.5,93.5 Z"/></g>
<g><path style="opacity:1" fill="#349eb6" d="M 362.5,101.5 C 363.975,103.007 365.309,104.673 366.5,106.5C 367.898,110.532 369.231,114.532 370.5,118.5C 371.229,123.13 371.563,127.797 371.5,132.5C 371.167,132.5 370.833,132.5 370.5,132.5C 370.001,127.508 369.501,122.508 369,117.5C 366.569,114.583 365.402,111.25 365.5,107.5C 364.5,107.5 363.5,107.5 362.5,107.5C 362.167,109.5 361.833,111.5 361.5,113.5C 360.655,112.329 359.989,110.995 359.5,109.5C 361.693,107.478 362.693,104.811 362.5,101.5 Z"/></g>
<g><path style="opacity:1" fill="#eff692" d="M 440.5,130.5 C 438.517,130.157 437.183,130.824 436.5,132.5C 434.883,131.962 433.216,131.629 431.5,131.5C 431.082,130.778 430.416,130.278 429.5,130C 433.358,129.19 437.024,129.357 440.5,130.5 Z"/></g>
<g><path style="opacity:1" fill="#fff9c1" d="M 354.5,101.5 C 355.167,101.5 355.5,101.833 355.5,102.5C 355.5,103.5 355.5,104.5 355.5,105.5C 351.61,107.878 348.11,110.878 345,114.5C 344.214,149.508 344.381,184.508 345.5,219.5C 345.701,224.048 344.867,228.381 343,232.5C 342.329,233.252 341.496,233.586 340.5,233.5C 340.5,232.833 340.5,232.167 340.5,231.5C 341.117,231.389 341.617,231.056 342,230.5C 342.5,191.835 342.667,153.168 342.5,114.5C 346.166,111.003 349.999,107.669 354,104.5C 354.483,103.552 354.649,102.552 354.5,101.5 Z"/></g>
<g><path style="opacity:1" fill="#dffdfe" d="M 399.5,55.5 C 399.833,55.5 400.167,55.5 400.5,55.5C 400.5,62.8333 400.5,70.1667 400.5,77.5C 398.914,104.656 398.414,131.989 399,159.5C 399.26,163.25 399.927,166.916 401,170.5C 402.948,171.109 404.782,171.776 406.5,172.5C 402.51,173.384 399.677,172.051 398,168.5C 397.219,131.144 397.719,93.8107 399.5,56.5C 399.5,56.1667 399.5,55.8333 399.5,55.5 Z"/></g>
<g><path style="opacity:1" fill="#d8f9ba" d="M 370.5,118.5 C 371.222,118.918 371.722,119.584 372,120.5C 372.5,131.161 372.667,141.828 372.5,152.5C 371.509,146.021 371.176,139.354 371.5,132.5C 371.563,127.797 371.229,123.13 370.5,118.5 Z"/></g>
<g><path style="opacity:1" fill="#f7fcdd" d="M 277.5,138.5 C 274.309,135.975 271.309,135.975 268.5,138.5C 264.936,137.577 261.269,137.244 257.5,137.5C 257.577,136.25 258.244,135.417 259.5,135C 264.833,134.333 270.167,134.333 275.5,135C 276.823,135.816 277.489,136.983 277.5,138.5 Z"/></g>
<g><path style="opacity:1" fill="#e7fefe" d="M 525.5,72.5 C 525.5,72.1667 525.5,71.8333 525.5,71.5C 529.167,71.5 532.833,71.5 536.5,71.5C 536.693,99.3401 536.36,127.173 535.5,155C 535.587,163.525 536.087,172.025 537,180.5C 537.698,181.691 538.531,182.691 539.5,183.5C 538.178,183.67 537.011,183.337 536,182.5C 535.461,179.471 534.794,176.471 534,173.5C 534.307,139.836 534.807,106.169 535.5,72.5C 532.167,72.5 528.833,72.5 525.5,72.5 Z"/></g>
<g><path style="opacity:1" fill="#f5ea2b" d="M 219.5,116.5 C 222.287,115.523 225.287,115.19 228.5,115.5C 229.454,126.115 229.787,136.782 229.5,147.5C 227.735,148.461 225.735,148.795 223.5,148.5C 223.827,138.319 223.494,128.319 222.5,118.5C 221.71,117.599 220.71,116.932 219.5,116.5 Z"/></g>
<g><path style="opacity:1" fill="#fffecb" d="M 396.5,68.5 C 395.85,96.6276 395.183,124.628 394.5,152.5C 394.333,124.831 394.5,97.1647 395,69.5C 395.383,68.944 395.883,68.6107 396.5,68.5 Z"/></g>
<g><path style="opacity:1" fill="#fcec06" d="M 342.5,114.5 C 341.816,153.36 341.149,192.36 340.5,231.5C 339.5,231.5 338.5,231.5 337.5,231.5C 337.333,193.165 337.5,154.832 338,116.5C 339.353,115.315 340.52,113.981 341.5,112.5C 342.298,112.957 342.631,113.624 342.5,114.5 Z"/></g>
<g><path style="opacity:1" fill="#f4ea45" d="M 549.5,64.5 C 550.167,64.5 550.5,64.8333 550.5,65.5C 550.5,102.167 550.5,138.833 550.5,175.5C 548.5,175.5 546.5,175.5 544.5,175.5C 544.5,175.167 544.5,174.833 544.5,174.5C 544.833,174.5 545.167,174.5 545.5,174.5C 546.833,174.5 548.167,174.5 549.5,174.5C 549.5,137.833 549.5,101.167 549.5,64.5 Z"/></g>
<g><path style="opacity:1" fill="#dff25c" d="M 222.5,118.5 C 223.494,128.319 223.827,138.319 223.5,148.5C 225.735,148.795 227.735,148.461 229.5,147.5C 230.043,147.56 230.376,147.893 230.5,148.5C 227.914,149.48 225.247,149.813 222.5,149.5C 222.5,139.167 222.5,128.833 222.5,118.5 Z"/></g>
<g><path style="opacity:1" fill="#40a6a6" d="M 256.5,137.5 C 256.833,137.5 257.167,137.5 257.5,137.5C 261.269,137.244 264.936,137.577 268.5,138.5C 270.024,141.074 271.358,143.741 272.5,146.5C 270.394,144.728 268.727,142.562 267.5,140C 263.644,139.823 259.977,139.323 256.5,138.5C 256.5,138.167 256.5,137.833 256.5,137.5 Z"/></g>
<g><path style="opacity:1" fill="#f5ec7d" d="M 413.5,78.5 C 413.833,78.5 414.167,78.5 414.5,78.5C 414.3,105.502 413.967,132.502 413.5,159.5C 412.267,132.66 412.267,105.66 413.5,78.5 Z"/></g>
<g><path style="opacity:1" fill="#fbec06" d="M 549.5,64.5 C 549.5,101.167 549.5,137.833 549.5,174.5C 548.167,174.5 546.833,174.5 545.5,174.5C 545.333,141.498 545.5,108.498 546,75.5C 548.071,73.5453 548.738,71.212 548,68.5C 547.333,69.1667 546.667,69.8333 546,70.5C 545.187,68.5643 544.687,66.5643 544.5,64.5C 546.167,64.5 547.833,64.5 549.5,64.5 Z"/></g>
<g><path style="opacity:1" fill="#a9e9bf" d="M 378.5,113.5 C 379.468,115.607 379.802,117.941 379.5,120.5C 379.5,131.833 379.5,143.167 379.5,154.5C 377.5,154.5 375.5,154.5 373.5,154.5C 372.833,154.5 372.5,154.167 372.5,153.5C 374.5,153.5 376.5,153.5 378.5,153.5C 378.5,140.5 378.5,127.5 378.5,114.5C 378.5,114.167 378.5,113.833 378.5,113.5 Z"/></g>
<g><path style="opacity:1" fill="#2b99a4" d="M 385.5,132.5 C 385.833,132.5 386.167,132.5 386.5,132.5C 386.5,139.5 386.5,146.5 386.5,153.5C 386.5,154.5 386.5,155.5 386.5,156.5C 385.833,157.5 385.167,158.5 384.5,159.5C 384.167,159.5 383.833,159.5 383.5,159.5C 385.343,150.652 386.01,141.652 385.5,132.5 Z"/></g>
<g><path style="opacity:1" fill="#e5ea40" d="M 354.5,101.5 C 354.649,102.552 354.483,103.552 354,104.5C 349.999,107.669 346.166,111.003 342.5,114.5C 342.631,113.624 342.298,112.957 341.5,112.5C 340.52,113.981 339.353,115.315 338,116.5C 337.5,154.832 337.333,193.165 337.5,231.5C 338.5,231.5 339.5,231.5 340.5,231.5C 340.5,232.167 340.5,232.833 340.5,233.5C 337.918,233.975 335.918,233.308 334.5,231.5C 334.5,229.833 334.5,228.167 334.5,226.5C 335.117,226.389 335.617,226.056 336,225.5C 336.173,188.095 336.673,150.762 337.5,113.5C 337.973,112.094 338.973,111.427 340.5,111.5C 342.167,110.5 343.5,109.167 344.5,107.5C 347.225,106.287 349.559,104.454 351.5,102C 352.448,101.517 353.448,101.351 354.5,101.5 Z"/></g>
<g><path style="opacity:1" fill="#86cac1" d="M 370.5,132.5 C 370.833,132.5 371.167,132.5 371.5,132.5C 371.176,139.354 371.509,146.021 372.5,152.5C 372.5,152.833 372.5,153.167 372.5,153.5C 370.539,146.913 369.872,139.913 370.5,132.5 Z"/></g>
<g><path style="opacity:1" fill="#fbfed6" d="M 414.5,15.5 C 415.499,53.663 415.832,91.9964 415.5,130.5C 414.579,140.127 414.245,149.794 414.5,159.5C 414.167,159.5 413.833,159.5 413.5,159.5C 413.967,132.502 414.3,105.502 414.5,78.5C 414.5,57.5 414.5,36.5 414.5,15.5 Z"/></g>
<g><path style="opacity:1" fill="#d8fdfe" d="M 355.5,102.5 C 357.071,104.635 358.404,106.968 359.5,109.5C 359.989,110.995 360.655,112.329 361.5,113.5C 362.428,116.454 363.261,119.454 364,122.5C 364.06,134.903 364.727,147.237 366,159.5C 371.932,160.825 377.766,160.825 383.5,159.5C 383.833,159.5 384.167,159.5 384.5,159.5C 381.742,160.818 378.576,161.485 375,161.5C 371.833,161.333 368.667,161.167 365.5,161C 365,160.5 364.5,160 364,159.5C 364.061,145.4 363.061,131.4 361,117.5C 359.424,113.349 357.59,109.349 355.5,105.5C 355.5,104.5 355.5,103.5 355.5,102.5 Z"/></g>
<g><path style="opacity:1" fill="#fefed9" d="M 504.5,126.5 C 505.659,137.659 505.826,148.992 505,160.5C 504.248,163.421 502.415,165.087 499.5,165.5C 501.66,163.675 503.16,161.341 504,158.5C 504.5,147.839 504.667,137.172 504.5,126.5 Z"/></g>
<g><path style="opacity:1" fill="#2a97ae" d="M 379.5,120.5 C 380.495,131.321 380.828,142.321 380.5,153.5C 379.848,154.725 378.681,155.392 377,155.5C 375.615,155.486 374.449,155.152 373.5,154.5C 375.5,154.5 377.5,154.5 379.5,154.5C 379.5,143.167 379.5,131.833 379.5,120.5 Z"/></g>
<g><path style="opacity:1" fill="#2b9ea4" d="M 429.5,132.5 C 429.5,132.167 429.5,131.833 429.5,131.5C 430.167,131.5 430.833,131.5 431.5,131.5C 433.216,131.629 434.883,131.962 436.5,132.5C 437.942,133.82 438.608,135.486 438.5,137.5C 438.5,160.833 438.5,184.167 438.5,207.5C 437.668,183.67 437.168,159.67 437,135.5C 434.745,133.945 432.245,132.945 429.5,132.5 Z"/></g>
<g><path style="opacity:1" fill="#3da4a9" d="M 496.5,125.5 C 496.667,136.838 496.5,148.172 496,159.5C 495.392,161.154 494.892,162.821 494.5,164.5C 493.833,164.833 493.167,165.167 492.5,165.5C 493.706,151.898 495.039,138.565 496.5,125.5 Z"/></g>
<g><path style="opacity:1" fill="#f9ec12" d="M 190.5,191.5 C 189.01,193.28 187.01,193.946 184.5,193.5C 184.279,190.721 184.612,188.054 185.5,185.5C 186.498,158.005 186.831,130.338 186.5,102.5C 188.167,102.5 189.833,102.5 191.5,102.5C 191.802,132.192 191.468,161.858 190.5,191.5 Z"/></g>
<g><path style="opacity:1" fill="#eeed5e" d="M 496.5,125.5 C 499.167,125.5 501.833,125.5 504.5,125.5C 504.5,125.833 504.5,126.167 504.5,126.5C 504.667,137.172 504.5,147.839 504,158.5C 503.16,161.341 501.66,163.675 499.5,165.5C 497.585,165.784 495.919,165.451 494.5,164.5C 494.892,162.821 495.392,161.154 496,159.5C 496.5,148.172 496.667,136.838 496.5,125.5 Z"/></g>
<g><path style="opacity:1" fill="#faeb0b" d="M 497.5,126.5 C 499.167,126.5 500.833,126.5 502.5,126.5C 502.749,138.531 502.416,150.531 501.5,162.5C 500.167,162.5 498.833,162.5 497.5,162.5C 497.5,150.5 497.5,138.5 497.5,126.5 Z"/></g>
<g><path style="opacity:1" fill="#2896bb" d="M 427.5,131.5 C 428.167,131.5 428.833,131.5 429.5,131.5C 429.5,131.833 429.5,132.167 429.5,132.5C 425.416,132.043 421.583,132.71 418,134.5C 416.571,145.088 416.071,155.755 416.5,166.5C 412.958,166.813 409.625,166.479 406.5,165.5C 409.167,165.5 411.833,165.5 414.5,165.5C 415.33,155.341 415.83,145.008 416,134.5C 416.5,133.333 417.333,132.5 418.5,132C 421.482,131.502 424.482,131.335 427.5,131.5 Z"/></g>
<g><path style="opacity:1" fill="#d4ed93" d="M 543.5,71.5 C 544.498,105.663 544.832,139.996 544.5,174.5C 544.5,174.833 544.5,175.167 544.5,175.5C 544.167,175.5 543.833,175.5 543.5,175.5C 542.503,157.341 542.17,139.008 542.5,120.5C 543.496,104.342 543.83,88.0085 543.5,71.5 Z"/></g>
<g><path style="opacity:1" fill="#e2ec52" d="M 277.5,138.5 C 278.441,140.05 279.107,141.716 279.5,143.5C 278.504,143.586 277.671,143.252 277,142.5C 276.31,138.81 274.143,137.643 270.5,139C 276.27,145.839 280.27,153.672 282.5,162.5C 282.167,162.5 281.833,162.5 281.5,162.5C 281.5,161.833 281.167,161.5 280.5,161.5C 279.681,156.821 277.681,152.821 274.5,149.5C 274.573,147.973 273.906,146.973 272.5,146.5C 271.358,143.741 270.024,141.074 268.5,138.5C 271.309,135.975 274.309,135.975 277.5,138.5 Z"/></g>
<g><path style="opacity:1" fill="#36a0c7" d="M 405.5,12.5 C 405.833,12.5 406.167,12.5 406.5,12.5C 406.5,19.8333 406.5,27.1667 406.5,34.5C 406.5,51.8333 406.5,69.1667 406.5,86.5C 405.795,111.494 405.462,136.494 405.5,161.5C 404.515,158.943 403.515,156.276 402.5,153.5C 401.194,159.054 401.194,164.554 402.5,170C 408.126,171.828 413.793,171.995 419.5,170.5C 419.171,167.772 419.837,165.438 421.5,163.5C 421.5,166.167 421.5,168.833 421.5,171.5C 416.518,172.053 411.518,172.387 406.5,172.5C 404.782,171.776 402.948,171.109 401,170.5C 399.927,166.916 399.26,163.25 399,159.5C 398.414,131.989 398.914,104.656 400.5,77.5C 400.167,102.176 400.5,126.842 401.5,151.5C 402.308,149.577 402.808,147.577 403,145.5C 405.147,101.194 405.981,56.8606 405.5,12.5 Z"/></g>
<g><path style="opacity:1" fill="#d2f8fe" d="M 491.5,118.5 C 490.199,119.882 489.366,121.548 489,123.5C 488.972,134.882 488.805,146.215 488.5,157.5C 488.167,157.5 487.833,157.5 487.5,157.5C 487.333,144.829 487.5,132.162 488,119.5C 489.011,118.663 490.178,118.33 491.5,118.5 Z"/></g>
<g><path style="opacity:1" fill="#c8f9f8" d="M 415.5,130.5 C 419.702,130.183 423.702,130.517 427.5,131.5C 424.482,131.335 421.482,131.502 418.5,132C 417.333,132.5 416.5,133.333 416,134.5C 415.83,145.008 415.33,155.341 414.5,165.5C 414.5,163.5 414.5,161.5 414.5,159.5C 414.245,149.794 414.579,140.127 415.5,130.5 Z"/></g>
<g><path style="opacity:1" fill="#edeb2c" d="M 538.5,64.5 C 539.919,63.5489 541.585,63.2155 543.5,63.5C 545.735,63.2053 547.735,63.5386 549.5,64.5C 547.833,64.5 546.167,64.5 544.5,64.5C 544.687,66.5643 545.187,68.5643 546,70.5C 546.667,69.8333 547.333,69.1667 548,68.5C 548.738,71.212 548.071,73.5453 546,75.5C 545.5,108.498 545.333,141.498 545.5,174.5C 545.167,174.5 544.833,174.5 544.5,174.5C 544.832,139.996 544.498,105.663 543.5,71.5C 542.85,69.5648 542.517,67.5648 542.5,65.5C 541.041,65.5674 539.708,65.2341 538.5,64.5 Z"/></g>
<g><path style="opacity:1" fill="#fffdc0" d="M 192.5,102.5 C 193.664,132.664 193.831,162.997 193,193.5C 190.063,194.817 187.23,194.817 184.5,193.5C 187.01,193.946 189.01,193.28 190.5,191.5C 191.268,190.737 191.768,189.737 192,188.5C 192.5,159.835 192.667,131.169 192.5,102.5 Z"/></g>
<g><path style="opacity:1" fill="#48a6ac" d="M 274.5,149.5 C 277.681,152.821 279.681,156.821 280.5,161.5C 280.167,161.5 279.833,161.5 279.5,161.5C 276.819,157.967 275.153,153.967 274.5,149.5 Z"/></g>
<g><path style="opacity:1" fill="#b8e798" d="M 175.5,151.5 C 173.833,151.5 172.167,151.5 170.5,151.5C 170.5,163.167 170.5,174.833 170.5,186.5C 170.5,186.833 170.5,187.167 170.5,187.5C 169.833,179.5 169.167,171.5 168.5,163.5C 168.5,159.833 168.5,156.167 168.5,152.5C 170.66,150.436 172.993,150.102 175.5,151.5 Z"/></g>
<g><path style="opacity:1" fill="#98ce87" d="M 487.5,157.5 C 487.833,157.5 488.167,157.5 488.5,157.5C 488.5,158.167 488.5,158.833 488.5,159.5C 481.646,159.824 474.979,159.491 468.5,158.5C 474.645,157.51 480.978,157.177 487.5,157.5 Z"/></g>
<g><path style="opacity:1" fill="#249dcf" d="M 357.5,92.5 C 358.745,95.0087 359.745,97.6754 360.5,100.5C 361.183,100.863 361.85,101.196 362.5,101.5C 362.693,104.811 361.693,107.478 359.5,109.5C 358.404,106.968 357.071,104.635 355.5,102.5C 355.5,101.833 355.167,101.5 354.5,101.5C 353.399,100.402 352.066,100.235 350.5,101C 348.294,103.037 346.294,105.203 344.5,107.5C 342.167,107.833 340.833,109.167 340.5,111.5C 338.973,111.427 337.973,112.094 337.5,113.5C 337.167,113.5 336.833,113.5 336.5,113.5C 336.53,112.503 336.03,111.836 335,111.5C 333.416,111.988 332.249,112.988 331.5,114.5C 330.914,114.291 330.414,113.957 330,113.5C 329.787,140.732 330.287,167.899 331.5,195C 331.467,197.61 330.8,199.777 329.5,201.5C 328.765,171.835 328.599,142.169 329,112.5C 336.167,106 343.333,99.5 350.5,93C 352.895,91.4022 355.228,91.2355 357.5,92.5 Z"/></g>
<g><path style="opacity:1" fill="#8fcd7b" d="M 354.5,101.5 C 353.448,101.351 352.448,101.517 351.5,102C 349.559,104.454 347.225,106.287 344.5,107.5C 346.294,105.203 348.294,103.037 350.5,101C 352.066,100.235 353.399,100.402 354.5,101.5 Z"/></g>
<g><path style="opacity:1" fill="#289db0" d="M 461.5,159.5 C 463.607,158.532 465.941,158.198 468.5,158.5C 474.979,159.491 481.646,159.824 488.5,159.5C 479.652,160.696 470.652,160.696 461.5,159.5 Z"/></g>
<g><path style="opacity:1" fill="#7abd84" d="M 185.5,101.5 C 185.5,129.5 185.5,157.5 185.5,185.5C 184.612,188.054 184.279,190.721 184.5,193.5C 184.167,193.5 183.833,193.5 183.5,193.5C 183.5,190.833 183.5,188.167 183.5,185.5C 184.167,157.5 184.833,129.5 185.5,101.5 Z"/></g>
<g><path style="opacity:1" fill="#e6ea51" d="M 185.5,101.5 C 187.833,101.5 190.167,101.5 192.5,101.5C 192.5,101.833 192.5,102.167 192.5,102.5C 192.667,131.169 192.5,159.835 192,188.5C 191.768,189.737 191.268,190.737 190.5,191.5C 191.468,161.858 191.802,132.192 191.5,102.5C 189.833,102.5 188.167,102.5 186.5,102.5C 186.831,130.338 186.498,158.005 185.5,185.5C 185.5,157.5 185.5,129.5 185.5,101.5 Z"/></g>
<g><path style="opacity:1" fill="#f7eb20" d="M 279.5,143.5 C 281.78,147.447 284.447,151.113 287.5,154.5C 287.833,156.5 288.167,158.5 288.5,160.5C 288.5,167.5 288.5,174.5 288.5,181.5C 286.833,181.5 285.167,181.5 283.5,181.5C 282.51,175.355 282.177,169.022 282.5,162.5C 280.27,153.672 276.27,145.839 270.5,139C 274.143,137.643 276.31,138.81 277,142.5C 277.671,143.252 278.504,143.586 279.5,143.5 Z"/></g>
<g><path style="opacity:1" fill="#fefee2" d="M 287.5,154.5 C 288.94,156.388 290.607,157.055 292.5,156.5C 291.531,164.444 291.198,172.444 291.5,180.5C 291.167,180.5 290.833,180.5 290.5,180.5C 289.833,173.833 289.167,167.167 288.5,160.5C 288.167,158.5 287.833,156.5 287.5,154.5 Z"/></g>
<g><path style="opacity:1" fill="#c7ee8e" d="M 406.5,86.5 C 406.833,86.5 407.167,86.5 407.5,86.5C 407.5,112.5 407.5,138.5 407.5,164.5C 409.5,164.5 411.5,164.5 413.5,164.5C 413.5,162.833 413.5,161.167 413.5,159.5C 413.833,159.5 414.167,159.5 414.5,159.5C 414.5,161.5 414.5,163.5 414.5,165.5C 411.833,165.5 409.167,165.5 406.5,165.5C 405.566,164.432 405.232,163.099 405.5,161.5C 405.462,136.494 405.795,111.494 406.5,86.5 Z"/></g>
<g><path style="opacity:1" fill="#e6ea35" d="M 175.5,151.5 C 175.833,151.5 176.167,151.5 176.5,151.5C 176.828,163.345 176.495,175.012 175.5,186.5C 175.5,175.167 175.5,163.833 175.5,152.5C 174.167,152.5 172.833,152.5 171.5,152.5C 171.5,163.833 171.5,175.167 171.5,186.5C 171.167,186.5 170.833,186.5 170.5,186.5C 170.5,174.833 170.5,163.167 170.5,151.5C 172.167,151.5 173.833,151.5 175.5,151.5 Z"/></g>
<g><path style="opacity:1" fill="#fcea09" d="M 175.5,186.5 C 174.167,186.5 172.833,186.5 171.5,186.5C 171.5,175.167 171.5,163.833 171.5,152.5C 172.833,152.5 174.167,152.5 175.5,152.5C 175.5,163.833 175.5,175.167 175.5,186.5 Z"/></g>
<g><path style="opacity:1" fill="#4fa6c1" d="M 463.5,165.5 C 472.323,164.943 481.323,164.943 490.5,165.5C 484.355,166.49 478.022,166.823 471.5,166.5C 471.167,166.5 470.833,166.5 470.5,166.5C 468.393,165.532 466.059,165.198 463.5,165.5 Z"/></g>
<g><path style="opacity:1" fill="#d2fefe" d="M 215.5,155.5 C 219.36,156.804 223.36,157.471 227.5,157.5C 227.5,173.833 227.5,190.167 227.5,206.5C 226.669,191.005 226.169,175.339 226,159.5C 222.924,158.712 219.758,158.212 216.5,158C 215.748,157.329 215.414,156.496 215.5,155.5 Z"/></g>
<g><path style="opacity:1" fill="#f2f8c2" d="M 228.5,114.5 C 229.496,114.414 230.329,114.748 231,115.5C 231.5,126.161 231.667,136.828 231.5,147.5C 235.837,146.989 239.67,147.989 243,150.5C 243.5,167.163 243.667,183.83 243.5,200.5C 244.959,200.433 246.292,200.766 247.5,201.5C 247.5,202.167 247.5,202.833 247.5,203.5C 243.003,204.457 238.67,204.457 234.5,203.5C 235.167,203.5 235.833,203.5 236.5,203.5C 240.57,204.492 242.57,202.992 242.5,199C 241.551,182.52 241.218,166.02 241.5,149.5C 238.287,149.19 235.287,149.523 232.5,150.5C 229.167,150.5 225.833,150.5 222.5,150.5C 222.5,150.167 222.5,149.833 222.5,149.5C 225.247,149.813 227.914,149.48 230.5,148.5C 230.376,147.893 230.043,147.56 229.5,147.5C 229.787,136.782 229.454,126.115 228.5,115.5C 228.5,115.167 228.5,114.833 228.5,114.5 Z"/></g>
<g><path style="opacity:1" fill="#eaed7a" d="M 288.5,160.5 C 289.167,167.167 289.833,173.833 290.5,180.5C 291.167,181.167 291.833,181.833 292.5,182.5C 289.5,182.5 286.5,182.5 283.5,182.5C 283.5,182.167 283.5,181.833 283.5,181.5C 285.167,181.5 286.833,181.5 288.5,181.5C 288.5,174.5 288.5,167.5 288.5,160.5 Z"/></g>
<g><path style="opacity:1" fill="#119edc" d="M 429.5,132.5 C 432.245,132.945 434.745,133.945 437,135.5C 437.168,159.67 437.668,183.67 438.5,207.5C 438.5,208.167 438.5,208.833 438.5,209.5C 444.653,210.328 450.987,210.828 457.5,211C 458.167,212 458.833,213 459.5,214C 451.833,214.667 444.167,214.667 436.5,214C 434.65,213.31 433.316,212.144 432.5,210.5C 431.502,186.672 431.169,162.672 431.5,138.5C 430.5,138.5 429.5,138.5 428.5,138.5C 426.393,137.532 424.059,137.198 421.5,137.5C 421.5,146.167 421.5,154.833 421.5,163.5C 419.837,165.438 419.171,167.772 419.5,170.5C 413.793,171.995 408.126,171.828 402.5,170C 401.194,164.554 401.194,159.054 402.5,153.5C 403.515,156.276 404.515,158.943 405.5,161.5C 405.232,163.099 405.566,164.432 406.5,165.5C 409.625,166.479 412.958,166.813 416.5,166.5C 416.071,155.755 416.571,145.088 418,134.5C 421.583,132.71 425.416,132.043 429.5,132.5 Z"/></g>
<g><path style="opacity:1" fill="#f5e926" d="M 428.5,139.5 C 428.833,139.5 429.167,139.5 429.5,139.5C 429.5,149.5 429.5,159.5 429.5,169.5C 427.236,170.219 424.903,170.552 422.5,170.5C 422.5,168.167 422.5,165.833 422.5,163.5C 423.492,155.684 423.826,147.684 423.5,139.5C 425.167,139.5 426.833,139.5 428.5,139.5 Z"/></g>
<g><path style="opacity:1" fill="#d2f67d" d="M 428.5,138.5 C 428.5,138.833 428.5,139.167 428.5,139.5C 426.833,139.5 425.167,139.5 423.5,139.5C 423.826,147.684 423.492,155.684 422.5,163.5C 422.5,155.167 422.5,146.833 422.5,138.5C 424.5,138.5 426.5,138.5 428.5,138.5 Z"/></g>
<g><path style="opacity:1" fill="#53ae9e" d="M 428.5,138.5 C 426.5,138.5 424.5,138.5 422.5,138.5C 422.5,146.833 422.5,155.167 422.5,163.5C 422.5,165.833 422.5,168.167 422.5,170.5C 422.5,170.833 422.5,171.167 422.5,171.5C 422.167,171.5 421.833,171.5 421.5,171.5C 421.5,168.833 421.5,166.167 421.5,163.5C 421.5,154.833 421.5,146.167 421.5,137.5C 424.059,137.198 426.393,137.532 428.5,138.5 Z"/></g>
<g><path style="opacity:1" fill="#28a0cb" d="M 168.5,152.5 C 168.5,156.167 168.5,159.833 168.5,163.5C 169.167,171.5 169.833,179.5 170.5,187.5C 172.833,187.5 175.167,187.5 177.5,187.5C 177.833,187.5 178.167,187.5 178.5,187.5C 178.238,188.978 178.571,190.311 179.5,191.5C 181.368,189.739 182.701,187.739 183.5,185.5C 183.5,188.167 183.5,190.833 183.5,193.5C 180.037,194.524 176.37,195.191 172.5,195.5C 169.243,195.582 166.409,194.582 164,192.5C 162.594,184.251 162.094,175.917 162.5,167.5C 162.677,163.09 161.343,162.423 158.5,165.5C 155.565,166.623 152.565,167.623 149.5,168.5C 149.863,169.183 150.196,169.85 150.5,170.5C 148.937,171.945 147.604,173.611 146.5,175.5C 144.983,175.511 143.816,176.177 143,177.5C 142.5,195.83 142.333,214.164 142.5,232.5C 142.5,234.167 142.5,235.833 142.5,237.5C 142.167,237.5 141.833,237.5 141.5,237.5C 141.667,216.831 141.5,196.164 141,175.5C 140.329,174.748 139.496,174.414 138.5,174.5C 145.718,167.215 153.384,160.381 161.5,154C 163.677,152.798 166.011,152.298 168.5,152.5 Z"/></g>
<g><path style="opacity:1" fill="#42a4a7" d="M 158.5,165.5 C 156.5,167.167 154.5,168.833 152.5,170.5C 151.833,170.5 151.167,170.5 150.5,170.5C 150.196,169.85 149.863,169.183 149.5,168.5C 152.565,167.623 155.565,166.623 158.5,165.5 Z"/></g>
<g><path style="opacity:1" fill="#099ede" d="M 168.5,163.5 C 168.392,170.524 167.892,177.524 167,184.5C 164.463,181.029 163.296,177.029 163.5,172.5C 163.582,169.02 164.248,165.687 165.5,162.5C 164.5,162.5 163.5,162.5 162.5,162.5C 162.5,159.833 162.5,157.167 162.5,154.5C 164.144,154.286 165.644,154.62 167,155.5C 167.183,158.365 167.683,161.031 168.5,163.5 Z"/></g>
<g><path style="opacity:1" fill="#fcf9ac" d="M 429.5,169.5 C 429.389,170.117 429.056,170.617 428.5,171C 426.527,171.495 424.527,171.662 422.5,171.5C 422.5,171.167 422.5,170.833 422.5,170.5C 424.903,170.552 427.236,170.219 429.5,169.5 Z"/></g>
<g><path style="opacity:1" fill="#d2fefe" d="M 256.5,137.5 C 256.5,137.833 256.5,138.167 256.5,138.5C 253.833,138.5 251.167,138.5 248.5,138.5C 248.831,160.34 248.497,182.006 247.5,203.5C 247.5,202.833 247.5,202.167 247.5,201.5C 247.5,180.167 247.5,158.833 247.5,137.5C 250.5,137.5 253.5,137.5 256.5,137.5 Z"/></g>
<g><path style="opacity:1" fill="#f5e730" d="M 342.5,114.5 C 342.667,153.168 342.5,191.835 342,230.5C 341.617,231.056 341.117,231.389 340.5,231.5C 341.149,192.36 341.816,153.36 342.5,114.5 Z"/></g>
<g><path style="opacity:1" fill="#b2db65" d="M 150.5,170.5 C 151.167,170.5 151.833,170.5 152.5,170.5C 150.863,172.592 148.863,174.259 146.5,175.5C 147.604,173.611 148.937,171.945 150.5,170.5 Z"/></g>
<g><path style="opacity:1" fill="#a1eba3" d="M 463.5,165.5 C 466.059,165.198 468.393,165.532 470.5,166.5C 468.5,166.5 466.5,166.5 464.5,166.5C 464.829,179.677 464.495,192.677 463.5,205.5C 463.5,192.167 463.5,178.833 463.5,165.5 Z"/></g>
<g><path style="opacity:1" fill="#f3f07b" d="M 256.5,145.5 C 256.5,145.167 256.5,144.833 256.5,144.5C 259.279,144.279 261.946,144.612 264.5,145.5C 265.154,165.528 264.488,185.195 262.5,204.5C 262.5,185.167 262.5,165.833 262.5,146.5C 260.735,145.539 258.735,145.205 256.5,145.5 Z"/></g>
<g><path style="opacity:1" fill="#e3f6b0" d="M 550.5,65.5 C 551.333,101.331 551.833,137.331 552,173.5C 556.066,174.464 560.233,174.797 564.5,174.5C 566.099,174.232 567.432,174.566 568.5,175.5C 565.615,175.194 562.948,175.527 560.5,176.5C 554.642,176.822 548.975,176.489 543.5,175.5C 543.833,175.5 544.167,175.5 544.5,175.5C 546.5,175.5 548.5,175.5 550.5,175.5C 550.5,138.833 550.5,102.167 550.5,65.5 Z"/></g>
<g><path style="opacity:1" fill="#50aea7" d="M 256.5,144.5 C 256.5,144.833 256.5,145.167 256.5,145.5C 256.667,165.169 256.5,184.836 256,204.5C 254.731,205.905 254.231,207.571 254.5,209.5C 254.167,209.5 253.833,209.5 253.5,209.5C 254.129,188.173 254.629,166.839 255,145.5C 255.383,144.944 255.883,144.611 256.5,144.5 Z"/></g>
<g><path style="opacity:1" fill="#cefdfd" d="M 428.5,139.5 C 428.5,139.167 428.5,138.833 428.5,138.5C 429.5,138.5 430.5,138.5 431.5,138.5C 431.169,162.672 431.502,186.672 432.5,210.5C 432.227,212.451 432.893,213.951 434.5,215C 443.167,215.667 451.833,215.667 460.5,215C 461.056,214.617 461.389,214.117 461.5,213.5C 461.833,213.5 462.167,213.5 462.5,213.5C 462.5,213.833 462.5,214.167 462.5,214.5C 462.389,215.117 462.056,215.617 461.5,216C 451.506,216.5 441.506,216.666 431.5,216.5C 430.86,190.693 430.194,165.027 429.5,139.5C 429.167,139.5 428.833,139.5 428.5,139.5 Z"/></g>
<g><path style="opacity:1" fill="#bffad3" d="M 281.5,162.5 C 281.833,162.5 282.167,162.5 282.5,162.5C 282.177,169.022 282.51,175.355 283.5,181.5C 283.5,181.833 283.5,182.167 283.5,182.5C 283.167,182.5 282.833,182.5 282.5,182.5C 281.509,176.021 281.176,169.354 281.5,162.5 Z"/></g>
<g><path style="opacity:1" fill="#309fc6" d="M 541.5,70.5 C 542.497,86.9916 542.83,103.658 542.5,120.5C 542.17,139.008 542.503,157.341 543.5,175.5C 548.975,176.489 554.642,176.822 560.5,176.5C 560.5,177.167 560.833,177.5 561.5,177.5C 562.933,179.558 563.6,181.892 563.5,184.5C 562.211,182.752 560.711,182.419 559,183.5C 558.828,189.681 558.328,195.681 557.5,201.5C 557.5,195.5 557.5,189.5 557.5,183.5C 551.833,183.5 546.167,183.5 540.5,183.5C 540.167,183.5 539.833,183.5 539.5,183.5C 538.531,182.691 537.698,181.691 537,180.5C 536.087,172.025 535.587,163.525 535.5,155C 536.36,127.173 536.693,99.3401 536.5,71.5C 537.908,80.4607 538.575,89.6274 538.5,99C 537.5,124.829 537.333,150.662 538,176.5C 538.309,177.766 538.809,178.933 539.5,180C 541.906,180.306 544.073,181.139 546,182.5C 551.111,182.226 555.944,181.059 560.5,179C 554.833,178.667 549.167,178.333 543.5,178C 543,177.5 542.5,177 542,176.5C 541.5,141.168 541.333,105.835 541.5,70.5 Z"/></g>
<g><path style="opacity:1" fill="#e4f9ce" d="M 290.5,180.5 C 290.833,180.5 291.167,180.5 291.5,180.5C 302.679,180.172 313.679,180.505 324.5,181.5C 320.958,181.187 317.625,181.521 314.5,182.5C 307.167,182.5 299.833,182.5 292.5,182.5C 291.833,181.833 291.167,181.167 290.5,180.5 Z"/></g>
<g><path style="opacity:1" fill="#d3f28c" d="M 176.5,151.5 C 176.833,151.5 177.167,151.5 177.5,151.5C 177.5,163.5 177.5,175.5 177.5,187.5C 175.167,187.5 172.833,187.5 170.5,187.5C 170.5,187.167 170.5,186.833 170.5,186.5C 170.833,186.5 171.167,186.5 171.5,186.5C 172.833,186.5 174.167,186.5 175.5,186.5C 176.495,175.012 176.828,163.345 176.5,151.5 Z"/></g>
<g><path style="opacity:1" fill="#299fcc" d="M 272.5,159.5 C 273.5,159.5 274.5,159.5 275.5,159.5C 276.166,167.814 276.666,176.147 277,184.5C 277.317,182.699 277.984,182.366 279,183.5C 279.5,176.174 279.666,168.841 279.5,161.5C 279.833,161.5 280.167,161.5 280.5,161.5C 281.167,161.5 281.5,161.833 281.5,162.5C 281.176,169.354 281.509,176.021 282.5,182.5C 293.5,183.167 304.5,183.833 315.5,184.5C 305.494,184.334 295.494,184.5 285.5,185C 286.5,185.333 287.5,185.667 288.5,186C 286.122,186.511 283.788,187.178 281.5,188C 292.008,188.17 302.341,188.67 312.5,189.5C 302.148,189.399 291.815,189.733 281.5,190.5C 278.225,189.726 276.058,187.726 275,184.5C 274.667,176.833 274.333,169.167 274,161.5C 273.283,160.956 272.783,160.289 272.5,159.5 Z"/></g>
<g><path style="opacity:1" fill="#67b896" d="M 282.5,182.5 C 282.833,182.5 283.167,182.5 283.5,182.5C 286.5,182.5 289.5,182.5 292.5,182.5C 299.833,182.5 307.167,182.5 314.5,182.5C 315.833,182.833 317.167,183.167 318.5,183.5C 320.081,185.142 320.747,187.142 320.5,189.5C 320.5,202.167 320.5,214.833 320.5,227.5C 319.669,214.006 319.169,200.339 319,186.5C 318.184,185.177 317.017,184.511 315.5,184.5C 304.5,183.833 293.5,183.167 282.5,182.5 Z"/></g>
<g><path style="opacity:1" fill="#3a97b8" d="M 227.5,157.5 C 228.331,173.662 228.831,189.995 229,206.5C 229.692,207.025 230.192,207.692 230.5,208.5C 238.138,209.497 245.804,209.831 253.5,209.5C 245.677,210.656 237.677,210.823 229.5,210C 228.695,208.887 228.028,207.721 227.5,206.5C 227.5,190.167 227.5,173.833 227.5,157.5 Z"/></g>
<g><path style="opacity:1" fill="#7ab9ba" d="M 336.5,113.5 C 336.833,113.5 337.167,113.5 337.5,113.5C 336.673,150.762 336.173,188.095 336,225.5C 335.617,226.056 335.117,226.389 334.5,226.5C 334.5,220.5 334.5,214.5 334.5,208.5C 334.333,177.165 334.5,145.832 335,114.5C 335.383,113.944 335.883,113.611 336.5,113.5 Z"/></g>
<g><path style="opacity:1" fill="#eceb44" d="M 440.5,130.5 C 445.385,130.384 447.385,132.717 446.5,137.5C 446.5,160.833 446.5,184.167 446.5,207.5C 444.167,207.5 441.833,207.5 439.5,207.5C 439.5,184.167 439.5,160.833 439.5,137.5C 439.167,137.5 438.833,137.5 438.5,137.5C 438.608,135.486 437.942,133.82 436.5,132.5C 437.183,130.824 438.517,130.157 440.5,130.5 Z"/></g>
<g><path style="opacity:1" fill="#faec0d" d="M 439.5,137.5 C 439.5,135.833 439.5,134.167 439.5,132.5C 441.262,132.357 442.929,132.691 444.5,133.5C 445.5,157.824 445.833,182.158 445.5,206.5C 443.833,206.5 442.167,206.5 440.5,206.5C 440.831,183.327 440.498,160.327 439.5,137.5 Z"/></g>
<g><path style="opacity:1" fill="#fdfeca" d="M 446.5,137.5 C 447.498,160.327 447.831,183.327 447.5,206.5C 450.385,206.194 453.052,206.527 455.5,207.5C 452.5,207.5 449.5,207.5 446.5,207.5C 446.5,184.167 446.5,160.833 446.5,137.5 Z"/></g>
<g><path style="opacity:1" fill="#f8ea19" d="M 146.5,176.5 C 148.488,195.471 149.154,214.804 148.5,234.5C 148.608,236.514 147.942,238.18 146.5,239.5C 144.517,239.843 143.183,239.176 142.5,237.5C 142.5,235.833 142.5,234.167 142.5,232.5C 143.332,214.671 143.832,196.671 144,178.5C 144.708,177.619 145.542,176.953 146.5,176.5 Z"/></g>
<g><path style="opacity:1" fill="#119dda" d="M 222.5,149.5 C 222.5,149.833 222.5,150.167 222.5,150.5C 225.337,152.402 228.671,153.069 232.5,152.5C 233.125,169.641 233.792,186.641 234.5,203.5C 238.67,204.457 243.003,204.457 247.5,203.5C 248.497,182.006 248.831,160.34 248.5,138.5C 251.167,138.5 253.833,138.5 256.5,138.5C 259.977,139.323 263.644,139.823 267.5,140C 268.727,142.562 270.394,144.728 272.5,146.5C 273.906,146.973 274.573,147.973 274.5,149.5C 275.153,153.967 276.819,157.967 279.5,161.5C 279.666,168.841 279.5,176.174 279,183.5C 277.984,182.366 277.317,182.699 277,184.5C 276.666,176.147 276.166,167.814 275.5,159.5C 274.5,159.5 273.5,159.5 272.5,159.5C 270.197,154.554 267.531,149.887 264.5,145.5C 261.946,144.612 259.279,144.279 256.5,144.5C 255.883,144.611 255.383,144.944 255,145.5C 254.629,166.839 254.129,188.173 253.5,209.5C 245.804,209.831 238.138,209.497 230.5,208.5C 230.192,207.692 229.692,207.025 229,206.5C 228.831,189.995 228.331,173.662 227.5,157.5C 223.36,157.471 219.36,156.804 215.5,155.5C 215.5,144.833 215.5,134.167 215.5,123.5C 215.586,122.504 215.252,121.671 214.5,121C 210.771,119.922 207.104,119.755 203.5,120.5C 203.5,119.5 203.5,118.5 203.5,117.5C 208.721,117.072 214.054,117.406 219.5,118.5C 220.199,128.48 220.699,138.48 221,148.5C 221.383,149.056 221.883,149.389 222.5,149.5 Z"/></g>
<g><path style="opacity:1" fill="#e3fd92" d="M 234.5,155.5 C 235.181,171.402 235.847,187.402 236.5,203.5C 235.833,203.5 235.167,203.5 234.5,203.5C 234.5,187.5 234.5,171.5 234.5,155.5 Z"/></g>
<g><path style="opacity:1" fill="#f6ea24" d="M 236.5,203.5 C 235.847,187.402 235.181,171.402 234.5,155.5C 234.635,153.446 233.968,151.779 232.5,150.5C 235.287,149.523 238.287,149.19 241.5,149.5C 241.218,166.02 241.551,182.52 242.5,199C 242.57,202.992 240.57,204.492 236.5,203.5 Z"/></g>
<g><path style="opacity:1" fill="#44a9aa" d="M 222.5,150.5 C 225.833,150.5 229.167,150.5 232.5,150.5C 233.968,151.779 234.635,153.446 234.5,155.5C 234.5,171.5 234.5,187.5 234.5,203.5C 233.792,186.641 233.125,169.641 232.5,152.5C 228.671,153.069 225.337,152.402 222.5,150.5 Z"/></g>
<g><path style="opacity:1" fill="#fbea0f" d="M 262.5,146.5 C 262.5,165.833 262.5,185.167 262.5,204.5C 262.5,205.167 262.5,205.833 262.5,206.5C 260.858,208.081 258.858,208.747 256.5,208.5C 257.466,187.867 257.799,167.2 257.5,146.5C 259.167,146.5 260.833,146.5 262.5,146.5 Z"/></g>
<g><path style="opacity:1" fill="#ece83d" d="M 162.5,167.5 C 161.5,167.833 160.833,168.5 160.5,169.5C 156.793,171.688 153.46,174.355 150.5,177.5C 149.833,196.5 149.167,215.5 148.5,234.5C 149.154,214.804 148.488,195.471 146.5,176.5C 146.5,176.167 146.5,175.833 146.5,175.5C 148.863,174.259 150.863,172.592 152.5,170.5C 154.5,168.833 156.5,167.167 158.5,165.5C 161.343,162.423 162.677,163.09 162.5,167.5 Z"/></g>
<g><path style="opacity:1" fill="#f7f05f" d="M 570.5,177.5 C 571.5,177.833 572.167,178.5 572.5,179.5C 572.5,191.167 572.5,202.833 572.5,214.5C 571.833,214.5 571.167,214.5 570.5,214.5C 570.5,214.167 570.5,213.833 570.5,213.5C 571.802,201.628 571.802,189.628 570.5,177.5 Z"/></g>
<g><path style="opacity:1" fill="#259aa8" d="M 463.5,165.5 C 463.5,178.833 463.5,192.167 463.5,205.5C 463.425,208.206 463.092,210.873 462.5,213.5C 462.167,213.5 461.833,213.5 461.5,213.5C 461.5,213.167 461.5,212.833 461.5,212.5C 462.07,196.678 462.737,181.011 463.5,165.5 Z"/></g>
<g><path style="opacity:1" fill="#3d9c89" d="M 561.5,177.5 C 563.975,178.687 564.975,180.687 564.5,183.5C 564.5,193.833 564.5,204.167 564.5,214.5C 566.5,214.5 568.5,214.5 570.5,214.5C 571.167,214.5 571.833,214.5 572.5,214.5C 583.833,214.5 595.167,214.5 606.5,214.5C 607.492,214.328 608.158,214.662 608.5,215.5C 593.833,215.5 579.167,215.5 564.5,215.5C 563.506,205.347 563.172,195.014 563.5,184.5C 563.6,181.892 562.933,179.558 561.5,177.5 Z"/></g>
<g><path style="opacity:1" fill="#d7f26f" d="M 146.5,175.5 C 146.5,175.833 146.5,176.167 146.5,176.5C 145.542,176.953 144.708,177.619 144,178.5C 143.832,196.671 143.332,214.671 142.5,232.5C 142.333,214.164 142.5,195.83 143,177.5C 143.816,176.177 144.983,175.511 146.5,175.5 Z"/></g>
<g><path style="opacity:1" fill="#b1e084" d="M 438.5,137.5 C 438.833,137.5 439.167,137.5 439.5,137.5C 439.5,160.833 439.5,184.167 439.5,207.5C 441.833,207.5 444.167,207.5 446.5,207.5C 449.5,207.5 452.5,207.5 455.5,207.5C 455.5,208.167 455.833,208.5 456.5,208.5C 450.69,209.49 444.69,209.823 438.5,209.5C 438.5,208.833 438.5,208.167 438.5,207.5C 438.5,184.167 438.5,160.833 438.5,137.5 Z"/></g>
<g><path style="opacity:1" fill="#e3eb46" d="M 256.5,145.5 C 258.735,145.205 260.735,145.539 262.5,146.5C 260.833,146.5 259.167,146.5 257.5,146.5C 257.799,167.2 257.466,187.867 256.5,208.5C 258.858,208.747 260.858,208.081 262.5,206.5C 262.586,207.496 262.252,208.329 261.5,209C 259.19,209.497 256.857,209.663 254.5,209.5C 254.231,207.571 254.731,205.905 256,204.5C 256.5,184.836 256.667,165.169 256.5,145.5 Z"/></g>
<g><path style="opacity:1" fill="#dbfefe" d="M 312.5,189.5 C 312.833,190.167 313.167,190.833 313.5,191.5C 312.877,206.077 313.544,220.411 315.5,234.5C 314.178,234.67 313.011,234.337 312,233.5C 311.667,219.5 311.333,205.5 311,191.5C 301.062,190.849 291.229,190.515 281.5,190.5C 291.815,189.733 302.148,189.399 312.5,189.5 Z"/></g>
<g><path style="opacity:1" fill="#f6ec17" d="M 568.5,175.5 C 568.833,176.5 569.5,177.167 570.5,177.5C 571.802,189.628 571.802,201.628 570.5,213.5C 568.833,213.5 567.167,213.5 565.5,213.5C 565.827,203.319 565.494,193.319 564.5,183.5C 564.975,180.687 563.975,178.687 561.5,177.5C 560.833,177.5 560.5,177.167 560.5,176.5C 562.948,175.527 565.615,175.194 568.5,175.5 Z"/></g>
<g><path style="opacity:1" fill="#eee93b" d="M 470.5,166.5 C 470.833,166.5 471.167,166.5 471.5,166.5C 471.667,180.837 471.5,195.171 471,209.5C 469.937,213.955 467.104,215.621 462.5,214.5C 462.5,214.167 462.5,213.833 462.5,213.5C 463.092,210.873 463.425,208.206 463.5,205.5C 464.495,192.677 464.829,179.677 464.5,166.5C 466.5,166.5 468.5,166.5 470.5,166.5 Z"/></g>
<g><path style="opacity:1" fill="#fbeb04" d="M 465.5,167.5 C 466.833,167.5 468.167,167.5 469.5,167.5C 469.667,179.838 469.5,192.171 469,204.5C 468.667,203.5 468.333,202.5 468,201.5C 467.333,203.5 466.667,205.5 466,207.5C 465.5,194.171 465.333,180.837 465.5,167.5 Z"/></g>
<g><path style="opacity:1" fill="#fdfa86" d="M 150.5,177.5 C 150.5,197.167 150.5,216.833 150.5,236.5C 149.764,238.229 148.43,239.229 146.5,239.5C 147.942,238.18 148.608,236.514 148.5,234.5C 149.167,215.5 149.833,196.5 150.5,177.5 Z"/></g>
<g><path style="opacity:1" fill="#bae260" d="M 564.5,183.5 C 565.494,193.319 565.827,203.319 565.5,213.5C 567.167,213.5 568.833,213.5 570.5,213.5C 570.5,213.833 570.5,214.167 570.5,214.5C 568.5,214.5 566.5,214.5 564.5,214.5C 564.5,204.167 564.5,193.833 564.5,183.5 Z"/></g>
<g><path style="opacity:1" fill="#eaec6c" d="M 314.5,182.5 C 317.625,181.521 320.958,181.187 324.5,181.5C 325.5,181.5 326.5,181.5 327.5,181.5C 327.5,196.833 327.5,212.167 327.5,227.5C 325.167,227.5 322.833,227.5 320.5,227.5C 320.5,214.833 320.5,202.167 320.5,189.5C 321.495,201.655 321.829,213.989 321.5,226.5C 323.167,226.5 324.833,226.5 326.5,226.5C 326.667,212.163 326.5,197.829 326,183.5C 323.395,182.186 320.895,182.186 318.5,183.5C 317.167,183.167 315.833,182.833 314.5,182.5 Z"/></g>
<g><path style="opacity:1" fill="#dafdfe" d="M 540.5,183.5 C 546.167,183.5 551.833,183.5 557.5,183.5C 557.5,189.5 557.5,195.5 557.5,201.5C 556.212,207.771 556.546,214.105 558.5,220.5C 557.85,220.196 557.183,219.863 556.5,219.5C 555.501,207.852 555.168,196.186 555.5,184.5C 550.305,184.821 545.305,184.487 540.5,183.5 Z"/></g>
<g><path style="opacity:1" fill="#edfad0" d="M 572.5,179.5 C 573.495,190.321 573.828,201.321 573.5,212.5C 583.517,212.666 593.517,212.333 603.5,211.5C 610.015,211.869 616.348,212.535 622.5,213.5C 616.974,213.179 611.64,213.512 606.5,214.5C 595.167,214.5 583.833,214.5 572.5,214.5C 572.5,202.833 572.5,191.167 572.5,179.5 Z"/></g>
<g><path style="opacity:1" fill="#2799c1" d="M 313.5,191.5 C 314.331,204.327 314.831,217.327 315,230.5C 320.197,232.42 325.697,233.087 331.5,232.5C 331.351,231.448 331.517,230.448 332,229.5C 332.333,229.833 332.667,230.167 333,230.5C 333.171,222.989 333.671,215.655 334.5,208.5C 334.5,214.5 334.5,220.5 334.5,226.5C 334.5,228.167 334.5,229.833 334.5,231.5C 333.691,232.469 332.691,233.302 331.5,234C 326.177,234.499 320.844,234.666 315.5,234.5C 313.544,220.411 312.877,206.077 313.5,191.5 Z"/></g>
<g><path style="opacity:1" fill="#0f9edc" d="M 336.5,113.5 C 335.883,113.611 335.383,113.944 335,114.5C 334.5,145.832 334.333,177.165 334.5,208.5C 333.671,215.655 333.171,222.989 333,230.5C 332.667,230.167 332.333,229.833 332,229.5C 331.517,230.448 331.351,231.448 331.5,232.5C 325.697,233.087 320.197,232.42 315,230.5C 314.831,217.327 314.331,204.327 313.5,191.5C 313.167,190.833 312.833,190.167 312.5,189.5C 302.341,188.67 292.008,188.17 281.5,188C 283.788,187.178 286.122,186.511 288.5,186C 287.5,185.667 286.5,185.333 285.5,185C 295.494,184.5 305.494,184.334 315.5,184.5C 317.017,184.511 318.184,185.177 319,186.5C 319.169,200.339 319.669,214.006 320.5,227.5C 322.833,227.5 325.167,227.5 327.5,227.5C 328.285,218.986 328.952,210.319 329.5,201.5C 330.8,199.777 331.467,197.61 331.5,195C 330.287,167.899 329.787,140.732 330,113.5C 330.414,113.957 330.914,114.291 331.5,114.5C 332.249,112.988 333.416,111.988 335,111.5C 336.03,111.836 336.53,112.503 336.5,113.5 Z"/></g>
<g><path style="opacity:1" fill="#2c99c4" d="M 458.5,161.5 C 457.561,177.472 457.228,193.472 457.5,209.5C 458.5,209.5 459.5,209.5 460.5,209.5C 460.263,210.791 460.596,211.791 461.5,212.5C 461.5,212.833 461.5,213.167 461.5,213.5C 461.389,214.117 461.056,214.617 460.5,215C 451.833,215.667 443.167,215.667 434.5,215C 432.893,213.951 432.227,212.451 432.5,210.5C 433.316,212.144 434.65,213.31 436.5,214C 444.167,214.667 451.833,214.667 459.5,214C 458.833,213 458.167,212 457.5,211C 450.987,210.828 444.653,210.328 438.5,209.5C 444.69,209.823 450.69,209.49 456.5,208.5C 456.666,196.819 456.333,185.152 455.5,173.5C 455.086,169.021 456.086,165.021 458.5,161.5 Z"/></g>
<g><path style="opacity:1" fill="#eff081" d="M 606.5,214.5 C 611.64,213.512 616.974,213.179 622.5,213.5C 624.828,214.736 625.994,216.736 626,219.5C 626.5,226.826 626.666,234.159 626.5,241.5C 626.167,241.5 625.833,241.5 625.5,241.5C 624.671,233.343 624.171,225.01 624,216.5C 621.561,214.502 619.061,214.169 616.5,215.5C 613.833,215.5 611.167,215.5 608.5,215.5C 608.158,214.662 607.492,214.328 606.5,214.5 Z"/></g>
<g><path style="opacity:1" fill="#f9eb15" d="M 320.5,189.5 C 320.747,187.142 320.081,185.142 318.5,183.5C 320.895,182.186 323.395,182.186 326,183.5C 326.5,197.829 326.667,212.163 326.5,226.5C 324.833,226.5 323.167,226.5 321.5,226.5C 321.829,213.989 321.495,201.655 320.5,189.5 Z"/></g>
<g><path style="opacity:1" fill="#1c9fda" d="M 563.5,184.5 C 563.172,195.014 563.506,205.347 564.5,215.5C 579.995,216.331 595.661,216.831 611.5,217C 614.005,217.51 615.505,219.01 616,221.5C 616.333,228.5 616.667,235.5 617,242.5C 617.383,243.056 617.883,243.389 618.5,243.5C 621.167,243.5 623.833,243.5 626.5,243.5C 633.5,243.5 640.5,243.5 647.5,243.5C 648.5,243.5 649.5,243.5 650.5,243.5C 650.5,245.833 650.5,248.167 650.5,250.5C 638.491,251.713 626.491,251.713 614.5,250.5C 613.313,249.466 612.48,248.133 612,246.5C 611.817,238.255 611.317,230.088 610.5,222C 599.326,221.174 588.326,221.341 577.5,222.5C 571.032,222.849 564.699,222.183 558.5,220.5C 556.546,214.105 556.212,207.771 557.5,201.5C 558.328,195.681 558.828,189.681 559,183.5C 560.711,182.419 562.211,182.752 563.5,184.5 Z"/></g>
<g><path style="opacity:1" fill="#fefed8" d="M 160.5,169.5 C 158.166,172.666 155.333,175.333 152,177.5C 151.832,197.338 151.332,217.004 150.5,236.5C 150.5,216.833 150.5,197.167 150.5,177.5C 153.46,174.355 156.793,171.688 160.5,169.5 Z"/></g>
<g><path style="opacity:1" fill="#3da5ba" d="M 564.5,215.5 C 579.167,215.5 593.833,215.5 608.5,215.5C 611.167,215.5 613.833,215.5 616.5,215.5C 616.229,217.38 616.896,218.713 618.5,219.5C 618.5,227.5 618.5,235.5 618.5,243.5C 617.883,243.389 617.383,243.056 617,242.5C 616.667,235.5 616.333,228.5 616,221.5C 615.505,219.01 614.005,217.51 611.5,217C 595.661,216.831 579.995,216.331 564.5,215.5 Z"/></g>
<g><path style="opacity:1" fill="#daeea7" d="M 134.5,233.5 C 102.5,233.5 70.5,233.5 38.5,233.5C 54.1524,232.167 70.1524,231.501 86.5,231.5C 102.848,231.501 118.848,232.167 134.5,233.5 Z"/></g>
<g><path style="opacity:1" fill="#08a0d2" d="M 32.5,235.5 C 66.3292,234.502 100.329,234.168 134.5,234.5C 133.112,235.872 131.445,236.872 129.5,237.5C 112.422,236.935 95.2551,236.602 78,236.5C 64.3458,236.518 50.8458,237.185 37.5,238.5C 36.5791,236.244 34.9124,235.244 32.5,235.5 Z"/></g>
<g><path style="opacity:1" fill="#0c9ddc" d="M 138.5,174.5 C 139.496,174.414 140.329,174.748 141,175.5C 141.5,196.164 141.667,216.831 141.5,237.5C 140.833,238.167 140.167,238.833 139.5,239.5C 103.833,239.5 68.1667,239.5 32.5,239.5C 32.5,238.167 32.5,236.833 32.5,235.5C 34.9124,235.244 36.5791,236.244 37.5,238.5C 50.8458,237.185 64.3458,236.518 78,236.5C 95.2551,236.602 112.422,236.935 129.5,237.5C 131.445,236.872 133.112,235.872 134.5,234.5C 134.5,234.167 134.5,233.833 134.5,233.5C 135.332,214.671 135.832,195.671 136,176.5C 136.708,175.619 137.542,174.953 138.5,174.5 Z"/></g>
<g><path style="opacity:1" fill="#f7ea1a" d="M 625.5,241.5 C 623.735,242.461 621.735,242.795 619.5,242.5C 619.825,234.648 619.492,226.982 618.5,219.5C 616.896,218.713 616.229,217.38 616.5,215.5C 619.061,214.169 621.561,214.502 624,216.5C 624.171,225.01 624.671,233.343 625.5,241.5 Z"/></g>
<g><path style="opacity:1" fill="#caf3fa" d="M 577.5,222.5 C 588.326,221.341 599.326,221.174 610.5,222C 611.317,230.088 611.817,238.255 612,246.5C 612.48,248.133 613.313,249.466 614.5,250.5C 611.234,250.567 609.734,248.901 610,245.5C 609.5,237.841 609.334,230.174 609.5,222.5C 598.833,222.5 588.167,222.5 577.5,222.5 Z"/></g>
<g><path style="opacity:1" fill="#d9f160" d="M 618.5,219.5 C 619.492,226.982 619.825,234.648 619.5,242.5C 621.735,242.795 623.735,242.461 625.5,241.5C 625.833,241.5 626.167,241.5 626.5,241.5C 626.833,241.5 627.167,241.5 627.5,241.5C 627.167,242.167 626.833,242.833 626.5,243.5C 623.833,243.5 621.167,243.5 618.5,243.5C 618.5,235.5 618.5,227.5 618.5,219.5 Z"/></g>
<g><path style="opacity:1" fill="#3395ac" d="M 38.5,233.5 C 70.5,233.5 102.5,233.5 134.5,233.5C 134.5,233.833 134.5,234.167 134.5,234.5C 100.329,234.168 66.3292,234.502 32.5,235.5C 32.5,236.833 32.5,238.167 32.5,239.5C 68.1667,239.5 103.833,239.5 139.5,239.5C 103.337,240.498 67.0038,240.832 30.5,240.5C 30.5,238.167 30.5,235.833 30.5,233.5C 33.1667,233.5 35.8333,233.5 38.5,233.5 Z"/></g>
<g><path style="opacity:1" fill="#d9efa7" d="M 627.5,241.5 C 634.584,240.874 641.25,241.541 647.5,243.5C 640.5,243.5 633.5,243.5 626.5,243.5C 626.833,242.833 627.167,242.167 627.5,241.5 Z"/></g>
<g><path style="opacity:1" fill="#2d2d2d" d="M 233.5,244.5 C 242.866,244.372 252.2,244.872 261.5,246C 267.648,246.476 271.482,249.643 273,255.5C 273.667,265.5 273.667,275.5 273,285.5C 270.296,291.777 265.463,294.944 258.5,295C 248.167,295.667 237.833,295.667 227.5,295C 219.875,294.701 215.375,290.867 214,283.5C 213.101,273.107 213.434,262.773 215,252.5C 216.663,250.083 218.829,248.25 221.5,247C 225.637,246.161 229.637,245.327 233.5,244.5 Z"/></g>
<g><path style="opacity:1" fill="#323232" d="M 460.5,245.5 C 463.167,245.5 465.833,245.5 468.5,245.5C 468.5,261.833 468.5,278.167 468.5,294.5C 465.833,294.5 463.167,294.5 460.5,294.5C 460.5,278.167 460.5,261.833 460.5,245.5 Z"/></g>
<g><path style="opacity:1" fill="#2e2e2e" d="M 480.5,245.5 C 497.5,245.5 514.5,245.5 531.5,245.5C 531.5,247.833 531.5,250.167 531.5,252.5C 524.167,252.5 516.833,252.5 509.5,252.5C 509.5,266.5 509.5,280.5 509.5,294.5C 507.167,294.5 504.833,294.5 502.5,294.5C 502.5,280.5 502.5,266.5 502.5,252.5C 495.167,252.5 487.833,252.5 480.5,252.5C 480.5,250.167 480.5,247.833 480.5,245.5 Z"/></g>
<g><path style="opacity:1" fill="#2c2c2c" d="M 284.5,245.5 C 300.17,245.333 315.837,245.5 331.5,246C 338.281,248.53 341.615,253.53 341.5,261C 341.883,266.528 339.883,270.861 335.5,274C 338,275.167 339.833,277 341,279.5C 341.499,284.489 341.666,289.489 341.5,294.5C 339.167,294.5 336.833,294.5 334.5,294.5C 334.666,290.154 334.499,285.821 334,281.5C 332.891,279.185 331.057,277.685 328.5,277C 316.171,276.5 303.838,276.333 291.5,276.5C 291.5,282.5 291.5,288.5 291.5,294.5C 289.167,294.5 286.833,294.5 284.5,294.5C 284.5,278.167 284.5,261.833 284.5,245.5 Z"/></g>
<g><path style="opacity:1" fill="#2e2d2d" d="M 41.5,244.5 C 51.5924,244.256 61.5924,245.089 71.5,247C 76.8845,250.725 78.8845,255.892 77.5,262.5C 75.1667,262.5 72.8333,262.5 70.5,262.5C 71.0288,258.808 70.0288,255.642 67.5,253C 57.8945,251.443 48.2278,251.109 38.5,252C 36.1116,252.303 33.9449,253.137 32,254.5C 28.7052,264.808 28.7052,275.141 32,285.5C 33.1711,286.893 34.6711,287.727 36.5,288C 46.1667,288.667 55.8333,288.667 65.5,288C 69.6925,285.78 71.3591,282.28 70.5,277.5C 72.8333,277.5 75.1667,277.5 77.5,277.5C 77.7662,281.605 77.2662,285.605 76,289.5C 74.3626,291.81 72.196,293.31 69.5,294C 59.2267,295.566 48.8934,295.899 38.5,295C 28.1927,294.359 23.026,288.859 23,278.5C 22.3333,271.833 22.3333,265.167 23,258.5C 23.7389,254.938 25.2389,251.772 27.5,249C 32.0862,246.861 36.7529,245.361 41.5,244.5 Z"/></g>
<g><path style="opacity:1" fill="#fdfdfd" d="M 228.5,251.5 C 238.172,251.334 247.839,251.5 257.5,252C 262.502,252.079 265.335,254.579 266,259.5C 266.87,267.897 266.537,276.23 265,284.5C 263.113,286.886 260.613,288.053 257.5,288C 246.427,288.931 235.427,288.597 224.5,287C 222.129,284.326 220.963,281.159 221,277.5C 219.912,269.64 220.579,261.974 223,254.5C 224.876,253.391 226.709,252.391 228.5,251.5 Z"/></g>
<g><path style="opacity:1" fill="#2f2f2f" d="M 111.5,244.5 C 123.032,243.936 134.366,245.103 145.5,248C 148.467,250.1 150.3,252.934 151,256.5C 151.667,264.833 151.667,273.167 151,281.5C 150.835,288.014 147.668,292.181 141.5,294C 129.543,295.532 117.543,295.865 105.5,295C 96.7595,294.59 91.9262,290.09 91,281.5C 90.0832,272.091 90.4165,262.758 92,253.5C 93.1217,251.376 94.6217,249.543 96.5,248C 101.545,246.425 106.545,245.259 111.5,244.5 Z"/></g>
<g><path style="opacity:1" fill="#fcfcfc" d="M 107.5,251.5 C 116.173,251.334 124.84,251.5 133.5,252C 136.571,252.147 139.404,252.98 142,254.5C 143.58,263.424 143.913,272.424 143,281.5C 142.837,283.676 142.004,285.509 140.5,287C 128.549,288.557 116.549,288.891 104.5,288C 102.671,287.727 101.171,286.893 100,285.5C 98.4165,276.242 98.0832,266.909 99,257.5C 99.3095,256.234 99.8095,255.067 100.5,254C 102.927,253.098 105.26,252.264 107.5,251.5 Z"/></g>
<g><path style="opacity:1" fill="#fbfbfb" d="M 291.5,252.5 C 304.504,252.333 317.504,252.5 330.5,253C 335.216,257.692 335.716,262.859 332,268.5C 330.933,269.191 329.766,269.691 328.5,270C 316.171,270.5 303.838,270.667 291.5,270.5C 291.5,264.5 291.5,258.5 291.5,252.5 Z"/></g>
<g><path style="opacity:1" fill="#2d2d2d" d="M 537.5,246.5 C 540.64,245.359 543.973,245.192 547.5,246C 554.727,253.639 562.061,261.139 569.5,268.5C 577.319,261.181 584.986,253.681 592.5,246C 595.833,245.333 599.167,245.333 602.5,246C 593,255.5 583.5,265 574,274.5C 573.5,281.158 573.334,287.825 573.5,294.5C 571.167,294.5 568.833,294.5 566.5,294.5C 566.83,287.8 566.497,281.134 565.5,274.5C 556.506,264.839 547.173,255.506 537.5,246.5 Z"/></g>
<g><path style="opacity:1" fill="#2f2f2f" d="M 412.5,244.5 C 422.405,243.97 432.072,245.136 441.5,248C 445.446,252.002 447.112,256.836 446.5,262.5C 443.833,262.5 441.167,262.5 438.5,262.5C 439.898,256.946 437.898,253.446 432.5,252C 422.439,251.105 412.439,251.438 402.5,253C 400.951,254.214 399.785,255.714 399,257.5C 398.333,265.5 398.333,273.5 399,281.5C 399.336,285.039 401.169,287.206 404.5,288C 414.5,288.667 424.5,288.667 434.5,288C 436.333,287.5 437.5,286.333 438,284.5C 438.497,282.19 438.663,279.857 438.5,277.5C 441.167,277.5 443.833,277.5 446.5,277.5C 446.873,282.548 445.706,287.215 443,291.5C 441.352,292.717 439.519,293.55 437.5,294C 427.207,295.471 416.873,295.804 406.5,295C 395.635,293.832 390.468,287.665 391,276.5C 389.399,266.905 390.899,257.905 395.5,249.5C 396.665,248.416 397.998,247.583 399.5,247C 403.988,246.24 408.322,245.406 412.5,244.5 Z"/></g>
<g><path style="opacity:1" fill="#292929" d="M 160.5,245.5 C 162.833,245.5 165.167,245.5 167.5,245.5C 167.5,259.833 167.5,274.167 167.5,288.5C 180.167,288.5 192.833,288.5 205.5,288.5C 205.5,290.5 205.5,292.5 205.5,294.5C 190.5,294.5 175.5,294.5 160.5,294.5C 160.5,278.167 160.5,261.833 160.5,245.5 Z"/></g>
</svg>
